<svg width="224" height="136" viewBox="0 0 224 136" fill="none" xmlns="http://www.w3.org/2000/svg">
<path d="M19.6 62.36C16.288 62.36 13.288 61.544 10.6 59.912C7.96 58.28 5.872 55.928 4.336 52.856C2.8 49.736 2.032 46.064 2.032 41.84C2.032 34.544 3.592 27.8 6.712 21.608C9.832 15.368 14.44 10.376 20.536 6.632C26.632 2.84 33.952 0.943996 42.496 0.943996C44.704 0.943996 47.056 1.112 49.552 1.448C52.096 1.784 54.4 2.288 56.464 2.96C57.808 3.344 58.48 4.304 58.48 5.84C58.48 7.088 58 8.264 57.04 9.368C56.128 10.472 55.048 11.024 53.8 11.024C53.416 11.024 53.128 11 52.936 10.952C50.44 10.376 48.304 9.968 46.528 9.728C44.752 9.44 42.88 9.296 40.912 9.296C34.816 9.296 29.632 10.784 25.36 13.76C21.088 16.688 17.896 20.576 15.784 25.424C13.672 30.272 12.616 35.504 12.616 41.12C12.616 45.2 13.408 48.368 14.992 50.624C16.624 52.832 18.736 53.936 21.328 53.936C24.256 53.936 26.824 52.736 29.032 50.336C31.24 47.936 33.256 44.048 35.08 38.672C36.904 33.296 38.704 26 40.48 16.784C40.768 15.44 41.344 14.528 42.208 14.048C43.072 13.568 44.224 13.328 45.664 13.328C49.072 13.328 50.776 14.432 50.776 16.64C50.776 17.024 50.704 17.504 50.56 18.08C49.312 22.736 48.16 27.896 47.104 33.56C46.096 39.176 45.592 43.448 45.592 46.376C45.592 48.968 45.976 50.864 46.744 52.064C47.512 53.216 48.688 53.792 50.272 53.792C51.808 53.792 53.272 53.288 54.664 52.28C56.056 51.224 57.808 49.448 59.92 46.952C60.496 46.28 61.144 45.944 61.864 45.944C62.488 45.944 62.968 46.232 63.304 46.808C63.688 47.384 63.88 48.176 63.88 49.184C63.88 51.056 63.424 52.544 62.512 53.648C60.16 56.48 57.856 58.64 55.6 60.128C53.344 61.616 50.584 62.36 47.32 62.36C43.96 62.36 41.248 61.4 39.184 59.48C37.12 57.512 35.824 54.752 35.296 51.2C31.744 58.64 26.512 62.36 19.6 62.36ZM63.1696 62.36C61.3456 62.36 60.0496 61.4 59.2816 59.48C58.5616 57.56 58.2016 54.488 58.2016 50.264C58.2016 44.024 59.0896 38.096 60.8656 32.48C61.2976 31.088 61.9936 30.08 62.9536 29.456C63.9616 28.784 65.3536 28.448 67.1296 28.448C68.0896 28.448 68.7616 28.568 69.1456 28.808C69.5296 29.048 69.7216 29.504 69.7216 30.176C69.7216 30.944 69.3616 32.672 68.6416 35.36C68.1616 37.28 67.7776 38.96 67.4896 40.4C67.2016 41.792 66.9616 43.544 66.7696 45.656C68.0656 41.912 69.6016 38.744 71.3776 36.152C73.2016 33.56 75.0496 31.64 76.9216 30.392C78.8416 29.096 80.6416 28.448 82.3216 28.448C84.0016 28.448 85.1776 28.832 85.8496 29.6C86.5696 30.368 86.9296 31.544 86.9296 33.128C86.9296 34.664 86.4736 37.448 85.5616 41.48C85.1776 43.208 84.9136 44.504 84.7696 45.368C87.1696 39.464 89.8336 35.168 92.7616 32.48C95.6896 29.792 98.4256 28.448 100.97 28.448C104.09 28.448 105.65 30.008 105.65 33.128C105.65 35 105.122 38.384 104.066 43.28C103.154 47.456 102.698 50.216 102.698 51.56C102.698 53.48 103.394 54.44 104.786 54.44C105.746 54.44 106.874 53.864 108.17 52.712C109.514 51.512 111.29 49.592 113.498 46.952C114.074 46.28 114.722 45.944 115.442 45.944C116.066 45.944 116.546 46.232 116.882 46.808C117.266 47.384 117.458 48.176 117.458 49.184C117.458 51.104 117.002 52.592 116.09 53.648C114.026 56.192 111.794 58.28 109.394 59.912C107.042 61.544 104.354 62.36 101.33 62.36C98.8816 62.36 97.0336 61.664 95.7856 60.272C94.5376 58.832 93.9136 56.768 93.9136 54.08C93.9136 52.736 94.2496 50.336 94.9216 46.88C95.5456 43.856 95.8576 41.768 95.8576 40.616C95.8576 39.848 95.5936 39.464 95.0656 39.464C94.4416 39.464 93.5536 40.28 92.4016 41.912C91.2496 43.496 90.0976 45.608 88.9456 48.248C87.7936 50.888 86.8576 53.672 86.1376 56.6C85.6096 58.904 84.9856 60.44 84.2656 61.208C83.5936 61.976 82.4896 62.36 80.9536 62.36C79.3696 62.36 78.1696 61.616 77.3536 60.128C76.5856 58.592 76.2016 56.744 76.2016 54.584C76.2016 52.76 76.4416 50.12 76.9216 46.664C77.3056 43.592 77.4976 41.576 77.4976 40.616C77.4976 39.848 77.2336 39.464 76.7056 39.464C75.9856 39.464 75.0736 40.328 73.9696 42.056C72.8656 43.784 71.7856 45.992 70.7296 48.68C69.7216 51.368 68.9056 54.008 68.2816 56.6C67.7536 58.856 67.1296 60.392 66.4096 61.208C65.7376 61.976 64.6576 62.36 63.1696 62.36ZM121.068 23.696C119.052 23.696 117.54 23.24 116.532 22.328C115.524 21.368 115.02 20.048 115.02 18.368C115.02 16.688 115.668 15.296 116.964 14.192C118.308 13.04 119.964 12.464 121.932 12.464C123.708 12.464 125.148 12.896 126.252 13.76C127.356 14.624 127.908 15.848 127.908 17.432C127.908 19.352 127.284 20.888 126.036 22.04C124.788 23.144 123.132 23.696 121.068 23.696ZM120.492 62.36C117.372 62.36 115.092 61.256 113.652 59.048C112.26 56.84 111.564 53.912 111.564 50.264C111.564 48.104 111.828 45.344 112.356 41.984C112.932 38.576 113.652 35.408 114.516 32.48C114.948 30.944 115.524 29.888 116.244 29.312C116.964 28.736 118.116 28.448 119.7 28.448C122.148 28.448 123.372 29.264 123.372 30.896C123.372 32.096 122.916 34.88 122.004 39.248C120.852 44.528 120.276 48.104 120.276 49.976C120.276 51.416 120.468 52.52 120.852 53.288C121.236 54.056 121.884 54.44 122.796 54.44C123.66 54.44 124.74 53.84 126.036 52.64C127.332 51.44 129.06 49.544 131.22 46.952C131.796 46.28 132.444 45.944 133.164 45.944C133.788 45.944 134.268 46.232 134.604 46.808C134.988 47.384 135.18 48.176 135.18 49.184C135.18 51.104 134.724 52.592 133.812 53.648C129.06 59.456 124.62 62.36 120.492 62.36ZM166.218 46.088C166.842 46.088 167.322 46.4 167.658 47.024C168.042 47.6 168.234 48.344 168.234 49.256C168.234 50.36 168.066 51.224 167.73 51.848C167.394 52.472 166.866 53.024 166.146 53.504C162.018 56.288 158.994 58.352 157.074 59.696L152.466 62.792C150.642 72.728 148.242 80.528 145.266 86.192C142.338 91.904 138.594 94.76 134.034 94.76C131.586 94.76 129.594 93.992 128.058 92.456C126.522 90.968 125.754 89 125.754 86.552C125.754 83.144 127.098 79.472 129.786 75.536C132.474 71.648 137.514 66.848 144.906 61.136L145.338 58.328C144.522 59.624 143.442 60.632 142.098 61.352C140.802 62.024 139.506 62.36 138.21 62.36C135.234 62.36 132.858 61.28 131.082 59.12C129.306 56.96 128.418 54.128 128.418 50.624C128.418 46.784 129.306 43.16 131.082 39.752C132.858 36.296 135.21 33.536 138.138 31.472C141.114 29.36 144.258 28.304 147.57 28.304C148.626 28.304 149.322 28.52 149.658 28.952C150.042 29.336 150.354 30.056 150.594 31.112C151.506 30.92 152.562 30.824 153.762 30.824C154.962 30.824 155.802 31.016 156.282 31.4C156.81 31.736 157.074 32.432 157.074 33.488C157.074 34.064 157.05 34.52 157.002 34.856C156.81 36.344 156.21 40.112 155.202 46.16C155.01 47.312 154.794 48.584 154.554 49.976C154.362 51.32 154.146 52.76 153.906 54.296C157.602 51.416 161.154 48.872 164.562 46.664C165.186 46.28 165.738 46.088 166.218 46.088ZM140.802 55.088C141.906 55.088 142.962 54.416 143.97 53.072C144.978 51.728 145.698 49.808 146.13 47.312L148.434 35C146.466 35.048 144.642 35.816 142.962 37.304C141.282 38.744 139.938 40.664 138.93 43.064C137.922 45.464 137.418 48.008 137.418 50.696C137.418 52.184 137.706 53.288 138.282 54.008C138.906 54.728 139.746 55.088 140.802 55.088ZM134.826 87.776C136.026 87.776 137.37 86.336 138.858 83.456C140.394 80.576 141.858 75.992 143.25 69.704C139.554 72.872 136.89 75.728 135.258 78.272C133.626 80.816 132.81 83.048 132.81 84.968C132.81 85.784 132.954 86.456 133.242 86.984C133.578 87.512 134.106 87.776 134.826 87.776ZM175.976 62.36C173.144 62.36 170.72 61.664 168.704 60.272C166.736 58.832 165.248 56.96 164.24 54.656C163.232 52.352 162.728 49.88 162.728 47.24C162.728 43.592 163.4 40.352 164.744 37.52C166.136 34.64 168.008 32.408 170.36 30.824C172.712 29.192 175.352 28.376 178.28 28.376C181.112 28.376 183.536 29.096 185.552 30.536C187.568 31.928 189.08 33.776 190.088 36.08C191.096 38.384 191.6 40.856 191.6 43.496C191.6 47.144 190.904 50.408 189.512 53.288C188.12 56.12 186.224 58.352 183.824 59.984C181.472 61.568 178.856 62.36 175.976 62.36ZM176.768 54.584C178.4 54.584 179.768 53.696 180.872 51.92C182.024 50.144 182.6 47.552 182.6 44.144C182.6 41.504 182.12 39.512 181.16 38.168C180.2 36.824 179.048 36.152 177.704 36.152C175.976 36.152 174.536 37.04 173.384 38.816C172.28 40.544 171.728 43.136 171.728 46.592C171.728 49.328 172.208 51.344 173.168 52.64C174.128 53.936 175.328 54.584 176.768 54.584ZM21.544 135.576C15.16 135.576 10.048 134.376 6.208 131.976C2.368 129.528 0.448 125.808 0.448 120.816C0.448 118.176 0.904 116.16 1.816 114.768C2.728 113.376 4.072 112.68 5.848 112.68C7.144 112.68 8.2 113.016 9.016 113.688C9.832 114.36 10.24 115.224 10.24 116.28C10.24 117.24 10.168 118.08 10.024 118.8C10.024 118.992 9.976 119.328 9.88 119.808C9.832 120.288 9.808 120.792 9.808 121.32C9.808 123.48 10.888 125.088 13.048 126.144C15.256 127.2 18.328 127.728 22.264 127.728C26.344 127.728 29.536 127.008 31.84 125.568C34.144 124.08 35.296 122.016 35.296 119.376C35.296 117.744 34.768 116.352 33.712 115.2C32.656 114 31.336 113.016 29.752 112.248C28.168 111.432 25.936 110.448 23.056 109.296C19.36 107.856 16.336 106.488 13.984 105.192C11.68 103.896 9.688 102.144 8.008 99.936C6.376 97.68 5.56 94.896 5.56 91.584C5.56 88.128 6.472 85.056 8.296 82.368C10.168 79.68 12.832 77.592 16.288 76.104C19.792 74.616 23.896 73.872 28.6 73.872C32.104 73.872 35.32 74.4 38.248 75.456C41.176 76.464 43.504 78.024 45.232 80.136C47.008 82.248 47.896 84.84 47.896 87.912C47.896 90.936 47.44 93.216 46.528 94.752C45.616 96.288 44.272 97.056 42.496 97.056C41.248 97.056 40.192 96.672 39.328 95.904C38.512 95.136 38.104 94.224 38.104 93.168C38.104 92.256 38.176 91.416 38.32 90.648C38.464 89.208 38.536 88.296 38.536 87.912C38.536 85.896 37.552 84.36 35.584 83.304C33.616 82.248 31.168 81.72 28.24 81.72C24.112 81.72 20.944 82.488 18.736 84.024C16.576 85.512 15.496 87.624 15.496 90.36C15.496 92.184 16.048 93.744 17.152 95.04C18.304 96.336 19.72 97.416 21.4 98.28C23.08 99.144 25.432 100.176 28.456 101.376C32.104 102.864 35.032 104.208 37.24 105.408C39.448 106.608 41.32 108.24 42.856 110.304C44.44 112.368 45.232 114.912 45.232 117.936C45.232 123.6 43.072 127.968 38.752 131.04C34.48 134.064 28.744 135.576 21.544 135.576ZM83.4899 118.944C84.1139 118.944 84.5939 119.232 84.9299 119.808C85.3139 120.384 85.5059 121.176 85.5059 122.184C85.5059 124.104 85.0499 125.592 84.1379 126.648C82.3619 128.808 79.8419 130.8 76.5779 132.624C73.3619 134.448 69.9059 135.36 66.2099 135.36C61.1699 135.36 57.2579 133.992 54.4739 131.256C51.6899 128.52 50.2979 124.776 50.2979 120.024C50.2979 116.712 50.9939 113.64 52.3859 110.808C53.7779 107.928 55.6979 105.648 58.1459 103.968C60.6419 102.288 63.4499 101.448 66.5699 101.448C69.3539 101.448 71.5859 102.288 73.2659 103.968C74.9459 105.6 75.7859 107.832 75.7859 110.664C75.7859 113.976 74.5859 116.832 72.1859 119.232C69.8339 121.584 65.8259 123.456 60.1619 124.848C61.3619 127.056 63.6419 128.16 67.0019 128.16C69.1619 128.16 71.6099 127.416 74.3459 125.928C77.1299 124.392 79.5299 122.4 81.5459 119.952C82.1219 119.28 82.7699 118.944 83.4899 118.944ZM65.3459 108.504C63.5699 108.504 62.0579 109.536 60.8099 111.6C59.6099 113.664 59.0099 116.16 59.0099 119.088V119.232C61.8419 118.56 64.0739 117.552 65.7059 116.208C67.3379 114.864 68.1539 113.304 68.1539 111.528C68.1539 110.616 67.8899 109.896 67.3619 109.368C66.8819 108.792 66.2099 108.504 65.3459 108.504ZM93.3955 135.36C88.6915 135.36 85.0195 134.04 82.3795 131.4C79.7875 128.712 78.4915 125.184 78.4915 120.816C78.4915 116.928 79.2595 113.52 80.7955 110.592C82.3315 107.664 84.3235 105.408 86.7715 103.824C89.2195 102.24 91.7875 101.448 94.4755 101.448C97.1155 101.448 99.1555 102.24 100.596 103.824C102.084 105.36 102.828 107.352 102.828 109.8C102.828 111.816 102.372 113.52 101.46 114.912C100.596 116.304 99.4435 117 98.0035 117C97.0915 117 96.3475 116.784 95.7715 116.352C95.2435 115.92 94.9795 115.32 94.9795 114.552C94.9795 114.216 95.0275 113.832 95.1235 113.4C95.2195 112.968 95.2915 112.656 95.3395 112.464C95.5795 111.744 95.6995 111.072 95.6995 110.448C95.6995 109.824 95.5315 109.344 95.1955 109.008C94.9075 108.672 94.4755 108.504 93.8995 108.504C92.7955 108.504 91.7635 109.008 90.8035 110.016C89.8435 110.976 89.0755 112.296 88.4995 113.976C87.9235 115.656 87.6355 117.504 87.6355 119.52C87.6355 125.088 90.0595 127.872 94.9075 127.872C96.8755 127.872 98.9875 127.224 101.244 125.928C103.548 124.584 105.804 122.592 108.012 119.952C108.588 119.28 109.236 118.944 109.956 118.944C110.58 118.944 111.06 119.232 111.396 119.808C111.78 120.384 111.972 121.176 111.972 122.184C111.972 124.008 111.516 125.496 110.604 126.648C108.348 129.432 105.636 131.592 102.468 133.128C99.3475 134.616 96.3235 135.36 93.3955 135.36ZM111.263 135.36C109.439 135.36 108.143 134.4 107.375 132.48C106.655 130.56 106.295 127.488 106.295 123.264C106.295 117.024 107.183 111.096 108.959 105.48C109.391 104.088 110.087 103.08 111.047 102.456C112.055 101.784 113.447 101.448 115.223 101.448C116.183 101.448 116.855 101.568 117.239 101.808C117.623 102.048 117.815 102.504 117.815 103.176C117.815 103.944 117.455 105.672 116.735 108.36C116.255 110.28 115.871 111.96 115.583 113.4C115.295 114.84 115.055 116.616 114.863 118.728C116.447 114.6 118.223 111.24 120.191 108.648C122.159 106.056 124.079 104.208 125.951 103.104C127.871 102 129.623 101.448 131.207 101.448C134.327 101.448 135.887 103.008 135.887 106.128C135.887 106.752 135.671 108.264 135.239 110.664C134.855 112.584 134.663 113.784 134.663 114.264C134.663 115.944 135.263 116.784 136.463 116.784C137.807 116.784 139.535 115.728 141.647 113.616C142.271 112.992 142.919 112.68 143.591 112.68C144.215 112.68 144.695 112.968 145.031 113.544C145.415 114.072 145.607 114.792 145.607 115.704C145.607 117.48 145.127 118.872 144.167 119.88C142.823 121.272 141.239 122.472 139.415 123.48C137.639 124.44 135.743 124.92 133.727 124.92C131.183 124.92 129.239 124.272 127.895 122.976C126.599 121.68 125.951 119.928 125.951 117.72C125.951 117 126.023 116.28 126.167 115.56C126.263 114.6 126.311 113.952 126.311 113.616C126.311 112.848 126.047 112.464 125.519 112.464C124.799 112.464 123.839 113.28 122.639 114.912C121.487 116.496 120.335 118.608 119.183 121.248C118.031 123.888 117.095 126.672 116.375 129.6C115.847 131.856 115.223 133.392 114.503 134.208C113.831 134.976 112.751 135.36 111.263 135.36ZM171.029 118.944C171.653 118.944 172.133 119.232 172.469 119.808C172.853 120.384 173.045 121.176 173.045 122.184C173.045 124.104 172.589 125.592 171.677 126.648C169.901 128.808 167.381 130.8 164.117 132.624C160.901 134.448 157.445 135.36 153.749 135.36C148.709 135.36 144.797 133.992 142.013 131.256C139.229 128.52 137.837 124.776 137.837 120.024C137.837 116.712 138.533 113.64 139.925 110.808C141.317 107.928 143.237 105.648 145.685 103.968C148.181 102.288 150.989 101.448 154.109 101.448C156.893 101.448 159.125 102.288 160.805 103.968C162.485 105.6 163.325 107.832 163.325 110.664C163.325 113.976 162.125 116.832 159.725 119.232C157.373 121.584 153.365 123.456 147.701 124.848C148.901 127.056 151.181 128.16 154.541 128.16C156.701 128.16 159.149 127.416 161.885 125.928C164.669 124.392 167.069 122.4 169.085 119.952C169.661 119.28 170.309 118.944 171.029 118.944ZM152.885 108.504C151.109 108.504 149.597 109.536 148.349 111.6C147.149 113.664 146.549 116.16 146.549 119.088V119.232C149.381 118.56 151.613 117.552 153.245 116.208C154.877 114.864 155.693 113.304 155.693 111.528C155.693 110.616 155.429 109.896 154.901 109.368C154.421 108.792 153.749 108.504 152.885 108.504ZM199.295 118.944C199.919 118.944 200.399 119.232 200.735 119.808C201.119 120.384 201.311 121.176 201.311 122.184C201.311 124.104 200.855 125.592 199.943 126.648C197.879 129.192 195.623 131.28 193.175 132.912C190.727 134.544 187.919 135.36 184.751 135.36C174.959 135.36 170.063 128.472 170.063 114.696C170.063 112.584 170.135 110.448 170.279 108.288H167.471C166.031 108.288 165.047 108.024 164.519 107.496C164.039 106.968 163.799 106.128 163.799 104.976C163.799 102.288 164.879 100.944 167.039 100.944H171.143C171.959 95.664 173.207 90.84 174.887 86.472C176.567 82.104 178.583 78.624 180.935 76.032C183.335 73.44 185.903 72.144 188.639 72.144C190.655 72.144 192.239 73.032 193.391 74.808C194.543 76.584 195.119 78.816 195.119 81.504C195.119 88.944 191.999 95.424 185.759 100.944H193.823C194.591 100.944 195.143 101.112 195.479 101.448C195.815 101.784 195.983 102.408 195.983 103.32C195.983 106.632 193.271 108.288 187.847 108.288H179.063C178.967 110.688 178.919 112.56 178.919 113.904C178.919 118.896 179.495 122.4 180.647 124.416C181.847 126.432 183.719 127.44 186.263 127.44C188.327 127.44 190.151 126.816 191.735 125.568C193.319 124.32 195.191 122.448 197.351 119.952C197.927 119.28 198.575 118.944 199.295 118.944ZM186.695 79.056C185.975 79.056 185.159 79.968 184.247 81.792C183.383 83.568 182.543 86.064 181.727 89.28C180.959 92.448 180.311 95.976 179.783 99.864C182.615 97.416 184.727 94.68 186.119 91.656C187.559 88.584 188.279 85.8 188.279 83.304C188.279 80.472 187.751 79.056 186.695 79.056ZM207.616 135.36C204.784 135.36 202.36 134.664 200.344 133.272C198.376 131.832 196.888 129.96 195.88 127.656C194.872 125.352 194.368 122.88 194.368 120.24C194.368 116.592 195.04 113.352 196.384 110.52C197.776 107.64 199.648 105.408 202 103.824C204.352 102.192 206.992 101.376 209.92 101.376C212.752 101.376 215.176 102.096 217.192 103.536C219.208 104.928 220.72 106.776 221.728 109.08C222.736 111.384 223.24 113.856 223.24 116.496C223.24 120.144 222.544 123.408 221.152 126.288C219.76 129.12 217.864 131.352 215.464 132.984C213.112 134.568 210.496 135.36 207.616 135.36ZM208.408 127.584C210.04 127.584 211.408 126.696 212.512 124.92C213.664 123.144 214.24 120.552 214.24 117.144C214.24 114.504 213.76 112.512 212.8 111.168C211.84 109.824 210.688 109.152 209.344 109.152C207.616 109.152 206.176 110.04 205.024 111.816C203.92 113.544 203.368 116.136 203.368 119.592C203.368 122.328 203.848 124.344 204.808 125.64C205.768 126.936 206.968 127.584 208.408 127.584Z" fill="white"/>
</svg>
